<?xml version="1.0" encoding="UTF-8"?>
<svg id="Layer_2" data-name="Layer 2" xmlns="http://www.w3.org/2000/svg" viewBox="0 0 73.01 26.3">
  <defs>
    <style>
      .cls-1 {
        fill: #a4a5a8;
      }

      .cls-2 {
        fill: #392c45;
      }

      .cls-3 {
        fill: #31353d;
      }

      .cls-4 {
        fill: #ba996a;
      }
    </style>
  </defs>
  <g id="Layer_1-2" data-name="Layer 1">
    <g>
      <path class="cls-2" d="M54.74,15.03c.05-.05.07-.13.04-.2s-.09-.11-.17-.11h-1.18s-.09.02-.13.06l-.42.43c-.15.15-.35.23-.56.23s-.41-.08-.56-.23l-2.04-2.03,1.29-1.3s.06-.1.05-.16c0-.04-.02-.08-.05-.1-.13-.25-.2-.52-.22-.8,0-.07-.05-.13-.12-.16-.02,0-.04-.01-.07-.01-.05,0-.09.02-.13.05l-.87.87s0,0,0,0l-2.81,2.83s-.05.08-.05.13c0,.05.02.1.06.13.12.11.23.19.34.24.12.06.24.09.35.09,0,0,0,0,0,0,.12,0,.23-.03.33-.07.11-.04.22-.12.32-.22l.69-.69,2.05,2.04c.38.37.88.58,1.41.58s1.03-.21,1.41-.59l1.01-1.02Z"/>
      <path class="cls-2" d="M60.42,17.77c0-.53-.21-1.03-.59-1.41l-1.02-1.01s-.08-.05-.13-.05c-.02,0-.05,0-.07.01-.07.03-.11.09-.11.17v1.18s.02.09.06.13l.43.42c.31.31.31.81,0,1.12l-.74.74-1.29,1.3-1.3-1.29-.74-.74c-.25-.25-.32-.63-.19-.94.03-.06.08-.12.12-.16l1.41-1.43.82-.82s0,0,0-.01l1.23-1.23.38-.38s0,0,0,0l.75-.75s0,0,.01-.01c.04-.05.06-.11.04-.17-.02-.06-.07-.11-.14-.12l-.97-.17s-.02,0-.03,0c-.05,0-.09.02-.13.05l-3.16,3.18-1.01,1.02-.04.04c-.44.44-.64,1.07-.53,1.68,0,.03.01.05.03.07.08.39.27.74.55,1.03l2.77,2.74s.08.05.13.05.09-.02.13-.05l2.74-2.77c.37-.38.58-.88.58-1.41Z"/>
      <path class="cls-2" d="M60.32,6.7l-.41.41c-.37.38-.58.88-.58,1.41,0,.53.21,1.03.59,1.41l1.02,1.01s.08.05.13.05c.02,0,.05,0,.07-.01.07-.03.11-.09.11-.17v-1.18s-.02-.09-.06-.13l-.43-.42c-.15-.15-.23-.35-.23-.56,0-.21.08-.41.23-.56l.74-.74,1.29-1.3,1.3,1.29.74.74c.25.25.32.63.19.94-.03.06-.08.12-.12.16l-1.41,1.43-.82.82s0,0,0,.01l-1.23,1.24-.38.38s0,0,0,0l-.75.75s0,0-.01.01c-.04.05-.06.11-.04.17.02.06.07.11.14.12l.97.17s.02,0,.03,0c.05,0,.09-.02.13-.05l3.16-3.18,1.01-1.02.04-.04c.44-.44.64-1.07.53-1.68,0-.03-.01-.05-.03-.07-.08-.39-.27-.74-.55-1.03l-2.77-2.74s-.08-.05-.13-.05-.09.02-.13.05l-2.25,2.27-.08.08Z"/>
      <path class="cls-2" d="M72.95,11.62c-.12-.11-.23-.19-.34-.24-.12-.06-.24-.09-.35-.09,0,0,0,0,0,0-.12,0-.23.03-.33.07-.11.04-.22.12-.32.22l-.69.69-2.05-2.04c-.38-.37-.88-.58-1.41-.58h0c-.53,0-1.03.21-1.41.59l-1.01,1.02c-.05.05-.07.13-.04.2s.09.11.17.11h1.18s.09-.02.13-.06l.42-.43c.15-.15.35-.23.56-.23s.41.08.56.23l2.04,2.03-1.29,1.3s-.06.1-.05.16c0,.04.02.08.05.1.13.25.2.52.22.8,0,.07.05.13.12.16.02,0,.04.01.07.01.05,0,.09-.02.13-.05l.86-.87s0,0,0,0l2.81-2.83s.05-.08.05-.13c0-.05-.02-.1-.06-.13Z"/>
      <path class="cls-2" d="M58,7.99s.08.05.13.05c.02,0,.05,0,.07-.01.07-.03.11-.09.11-.17v-1.18s-.02-.09-.06-.13l-.43-.42c-.15-.15-.23-.35-.23-.56,0-.21.08-.41.23-.56l2.03-2.04,1.3,1.29s.08.05.13.05c.01,0,.02,0,.03,0,.04,0,.08-.02.1-.05.25-.13.52-.2.8-.22.07,0,.13-.05.16-.12.03-.07,0-.14-.04-.19l-.87-.86s0,0,0,0L58.61.05S58.53,0,58.49,0c0,0,0,0,0,0-.05,0-.1.02-.13.06-.11.12-.19.23-.24.34-.06.12-.09.24-.09.35,0,0,0,0,0,0,0,.12.03.23.07.33.04.11.12.22.22.32l.69.69-2.04,2.05c-.77.78-.77,2.05.01,2.82l1.02,1.01Z"/>
      <path class="cls-2" d="M51.08,10.35l2.27,2.25.08.08.41.41c.38.37.88.58,1.41.58s1.03-.21,1.41-.59l1.01-1.02c.05-.05.07-.13.04-.2-.03-.07-.09-.11-.17-.11h-1.18s-.09.02-.13.06l-.42.43c-.15.15-.35.23-.56.23s-.41-.08-.56-.23l-.74-.74-1.3-1.29,1.29-1.3.74-.74c.16-.16.38-.25.61-.25.12,0,.23.02.33.07.06.03.12.08.16.12l1.43,1.41.82.82s0,0,.01,0l1.24,1.23.38.38s0,0,0,0l.75.75s0,0,.01.01c.03.03.08.05.12.05.02,0,.04,0,.05,0,.06-.02.11-.07.12-.14l.17-.97c.01-.06,0-.12-.05-.16l-4.24-4.21c-.37-.36-.85-.56-1.37-.56-.11,0-.21,0-.32.03-.03,0-.05.01-.07.03-.39.08-.74.27-1.03.55l-2.74,2.77c-.07.07-.07.19,0,.26Z"/>
      <path class="cls-4" d="M61.77,18.31s-.08-.05-.13-.05c-.02,0-.05,0-.07.01-.07.03-.11.09-.11.17v1.18s.02.09.06.13l.43.42c.15.15.23.35.23.56,0,.21-.08.41-.23.56l-2.03,2.04-1.3-1.29s-.08-.05-.13-.05c-.01,0-.02,0-.03,0-.04,0-.08.02-.1.05-.25.13-.52.2-.8.22-.07,0-.13.05-.16.12-.03.07,0,.14.04.19l.87.86s0,0,0,0l2.83,2.81s.08.05.13.05c0,0,0,0,0,0,.05,0,.1-.02.13-.06.11-.12.19-.23.24-.34.06-.12.09-.24.09-.35,0,0,0,0,0,0,0-.12-.03-.23-.07-.33-.04-.11-.12-.22-.22-.32l-.69-.69,2.04-2.05c.37-.38.58-.88.58-1.41,0-.53-.21-1.03-.59-1.41l-1.02-1.01Z"/>
      <path class="cls-4" d="M68.69,15.95l-2.77-2.74c-.38-.37-.88-.58-1.41-.58s-1.03.21-1.41.59l-1.01,1.02c-.05.05-.07.13-.04.2.03.07.09.11.17.11h1.18s.09-.02.13-.06l.42-.43c.15-.15.35-.23.56-.23s.41.08.56.23l.74.74,1.3,1.29-2.03,2.04c-.16.16-.38.25-.61.25-.12,0-.23-.02-.33-.07-.06-.03-.12-.08-.16-.12l-1.43-1.41-.82-.82s0,0-.01,0l-1.24-1.23-.38-.38s0,0,0,0l-.75-.75s0,0-.01-.01c-.03-.03-.08-.05-.12-.05-.02,0-.04,0-.05,0-.06.02-.11.07-.12.14l-.17.97c-.01.06,0,.12.05.16l3.18,3.16,1.02,1.01.04.04c.37.36.85.56,1.37.56.11,0,.21,0,.32-.03.03,0,.05-.01.07-.03.39-.08.74-.27,1.03-.55l.41-.41,2.34-2.35c.07-.07.07-.19,0-.26Z"/>
      <path class="cls-1" d="M55.18,21.19c-.09.3-.14.46-.14.46-.07.19-.14.33-.22.4l-.67-.38c.08-.2.19-.51.33-.92.23.09.36.15.4.17.17.09.27.18.31.27Z"/>
      <path class="cls-1" d="M51.61,17.62c-.09.3-.14.46-.14.46-.07.19-.14.33-.22.4l-.67-.38c.08-.2.19-.51.33-.92.23.09.36.15.4.17.17.09.27.18.31.27Z"/>
      <path class="cls-1" d="M69.19,8.25c-.09.3-.14.46-.14.46-.07.19-.14.33-.22.4l-.67-.38c.08-.2.19-.51.33-.92.23.09.36.15.4.17.17.09.27.18.31.27Z"/>
      <path class="cls-1" d="M65.62,4.67c-.09.3-.14.46-.14.46-.07.19-.14.33-.22.4l-.67-.38c.08-.2.19-.51.33-.92.23.09.36.15.4.17.17.09.27.18.31.27Z"/>
      <path class="cls-1" d="M51.82,8.51c-.3-.09-.46-.14-.46-.14-.19-.07-.33-.14-.4-.22l.38-.67c.2.08.51.19.92.33-.09.23-.15.36-.17.4-.09.17-.18.27-.27.31Z"/>
      <path class="cls-1" d="M55.4,4.94c-.3-.09-.46-.14-.46-.14-.19-.07-.33-.14-.4-.22l.38-.67c.2.08.51.19.92.33-.09.23-.15.36-.17.4-.09.17-.18.27-.27.31Z"/>
      <path class="cls-1" d="M64.82,22.44c-.3-.09-.46-.14-.46-.14-.19-.07-.33-.14-.4-.22l.38-.67c.2.08.51.19.92.33-.09.23-.15.36-.17.4-.09.17-.18.27-.27.31Z"/>
      <path class="cls-1" d="M68.4,18.87c-.3-.09-.46-.14-.46-.14-.19-.07-.33-.14-.4-.22l.38-.67c.2.08.51.19.92.33-.09.23-.15.36-.17.4-.09.17-.18.27-.27.31Z"/>
    </g>
    <g>
      <path class="cls-3" d="M28.29,7.4v-.16s.01-.04.04-.04h.13s.04.01.04.04v1.34c0,.08.01.13.04.16.03.03.07.04.14.04h.19c.05,0,.09,0,.11.02s.04.04.04.09c0,.05-.01.08-.04.09-.02,0-.06.01-.12.01h-.2s-.09,0-.14-.01c-.05,0-.09-.02-.12-.05-.04-.02-.06-.06-.09-.1-.02-.04-.03-.1-.03-.17-.05.05-.1.08-.17.11-.07.03-.16.04-.27.04-.19,0-.34-.05-.45-.16s-.17-.28-.17-.5c0-.14.02-.25.05-.35s.08-.17.14-.23c.06-.06.13-.1.22-.13.08-.03.18-.04.28-.04h.37ZM27.87,8.6c.16,0,.27-.04.33-.11.06-.07.09-.17.09-.3v-.58h-.41c-.14,0-.24.04-.32.12-.08.08-.12.22-.12.42,0,.16.04.28.11.35.07.07.18.11.32.11ZM27.55,6.94s-.04-.01-.04-.04v-.23s.01-.04.04-.04h.2s.04.01.04.04v.23s-.01.04-.04.04h-.2ZM28.04,6.94s-.04-.01-.04-.04v-.23s.01-.04.04-.04h.2s.04.01.04.04v.23s-.01.04-.04.04h-.2Z"/>
      <path class="cls-3" d="M28.87,8.99c-.05,0-.08,0-.1-.03-.02-.02-.02-.05-.02-.08,0-.05,0-.08.02-.09.01,0,.05-.01.1-.01h.38c.05,0,.09,0,.11.02.03.01.04.04.04.07,0,.05-.01.08-.04.1-.02.02-.06.02-.12.02h-.38Z"/>
      <path class="cls-3" d="M29.24,8.99c-.05,0-.08,0-.1-.03-.02-.02-.02-.05-.02-.08,0-.05,0-.08.02-.09.01,0,.05-.01.1-.01h.38c.05,0,.09,0,.11.02.03.01.04.04.04.07,0,.05-.01.08-.04.1-.02.02-.06.02-.12.02h-.38Z"/>
      <path class="cls-3" d="M29.61,8.99c-.05,0-.08,0-.1-.03-.02-.02-.02-.05-.02-.08,0-.05,0-.08.02-.09.01,0,.05-.01.1-.01h.38c.05,0,.09,0,.11.02.03.01.04.04.04.07,0,.05-.01.08-.04.1-.02.02-.06.02-.12.02h-.38Z"/>
      <path class="cls-3" d="M29.98,8.99c-.05,0-.08,0-.1-.03-.02-.02-.02-.05-.02-.08,0-.05,0-.08.02-.09.01,0,.05-.01.1-.01h.38c.05,0,.09,0,.11.02.03.01.04.04.04.07,0,.05-.01.08-.04.1-.02.02-.06.02-.12.02h-.38Z"/>
      <path class="cls-3" d="M30.35,8.99c-.05,0-.08,0-.1-.03-.02-.02-.02-.05-.02-.08,0-.05,0-.08.02-.09.01,0,.05-.01.1-.01h.38c.05,0,.09,0,.11.02.03.01.04.04.04.07,0,.05-.01.08-.04.1-.02.02-.06.02-.12.02h-.38Z"/>
      <path class="cls-3" d="M31.52,8.5c0,.09.03.16.1.21.07.05.16.07.27.07.07,0,.13,0,.17-.01.04,0,.07-.02.09-.05s.03-.06.04-.1c0-.04,0-.1,0-.17v-.59s.01-.04.04-.04h.13s.04.01.04.04v.66c0,.09.04.15.11.19.07.04.16.07.28.07.07,0,.13,0,.17-.01.04,0,.07-.03.09-.05.02-.03.03-.06.04-.1,0-.04,0-.1,0-.16v-.94s.01-.04.04-.04h.13s.04.01.04.04v.99c0,.1.03.17.1.21.07.05.16.07.27.07h.02c.05,0,.09,0,.11.02s.04.04.04.09-.01.07-.04.08c-.02.01-.06.02-.12.02-.1,0-.19-.01-.27-.04s-.13-.08-.17-.16c-.03.07-.07.12-.13.15-.05.03-.13.05-.24.05h-.17c-.07,0-.14-.02-.21-.05-.07-.03-.12-.08-.15-.15-.03.06-.07.11-.13.14s-.13.05-.23.05h-.17c-.07,0-.14-.02-.21-.05-.07-.03-.12-.08-.15-.15-.03.06-.07.11-.12.14-.05.03-.13.05-.24.05h-.4s-.07,0-.09-.02c-.02-.02-.03-.04-.03-.07,0-.05.01-.08.04-.1.02-.02.06-.02.12-.02h.39s.09,0,.11-.02c.03-.01.05-.03.06-.06.01-.03.02-.06.02-.1s0-.09,0-.15v-.59s.01-.04.04-.04h.13s.04.01.04.04v.64Z"/>
      <path class="cls-3" d="M33.7,8.99c-.05,0-.08,0-.1-.03-.02-.02-.02-.05-.02-.08,0-.05,0-.08.02-.09.01,0,.05-.01.1-.01h.38c.05,0,.09,0,.11.02.03.01.04.04.04.07,0,.05-.01.08-.04.1-.02.02-.06.02-.12.02h-.38Z"/>
      <path class="cls-3" d="M34.07,8.99c-.05,0-.08,0-.1-.03-.02-.02-.02-.05-.02-.08,0-.05,0-.08.02-.09.01,0,.05-.01.1-.01h.38c.05,0,.09,0,.11.02.03.01.04.04.04.07,0,.05-.01.08-.04.1-.02.02-.06.02-.12.02h-.38Z"/>
      <path class="cls-3" d="M34.44,8.99c-.05,0-.08,0-.1-.03-.02-.02-.02-.05-.02-.08,0-.05,0-.08.02-.09.01,0,.05-.01.1-.01h.38c.05,0,.09,0,.11.02.03.01.04.04.04.07,0,.05-.01.08-.04.1-.02.02-.06.02-.12.02h-.38Z"/>
      <path class="cls-3" d="M34.81,8.99c-.05,0-.08,0-.1-.03-.02-.02-.02-.05-.02-.08,0-.05,0-.08.02-.09.01,0,.05-.01.1-.01h.38c.05,0,.09,0,.11.02.03.01.04.04.04.07,0,.05-.01.08-.04.1-.02.02-.06.02-.12.02h-.38Z"/>
      <path class="cls-3" d="M35.18,8.99c-.05,0-.08,0-.1-.03-.02-.02-.02-.05-.02-.08,0-.05,0-.08.02-.09.01,0,.05-.01.1-.01h.38c.05,0,.09,0,.11.02.03.01.04.04.04.07,0,.05-.01.08-.04.1-.02.02-.06.02-.12.02h-.38Z"/>
      <path class="cls-3" d="M38.14,8.49c0,.11-.01.19-.03.26-.02.06-.05.11-.09.15-.04.04-.08.06-.14.07-.05.01-.11.02-.17.02h-.15c-.07,0-.14-.02-.21-.05-.07-.03-.12-.08-.15-.15-.03.06-.07.11-.13.14s-.13.05-.23.05h-.17c-.07,0-.14-.02-.21-.05-.07-.03-.12-.08-.15-.15-.03.06-.07.11-.13.14-.05.03-.13.05-.24.05h-.4s-.07,0-.09-.02c-.02-.02-.03-.04-.03-.07,0-.05.01-.08.04-.1.02-.02.06-.02.12-.02h.39s.09,0,.11-.02c.03-.01.05-.03.06-.06.01-.03.02-.06.02-.1s0-.09,0-.15v-.59s.01-.04.04-.04h.13s.04.01.04.04v.64c0,.09.03.16.1.21.07.05.16.07.27.07.07,0,.13,0,.17-.01.04,0,.07-.02.09-.05s.03-.06.04-.1c0-.04,0-.1,0-.17v-.59s.01-.04.04-.04h.13s.04.01.04.04v.66c0,.09.04.15.11.19.07.04.16.07.28.07.07,0,.13,0,.17-.01.04,0,.07-.03.09-.05.02-.03.03-.06.04-.1,0-.04,0-.1,0-.16v-.94s.01-.04.04-.04h.13s.04.01.04.04v.99Z"/>
      <path class="cls-3" d="M38.95,9.73s-.04-.01-.04-.04v-.14s.01-.04.04-.04h.46c.12,0,.21-.02.27-.07.06-.05.09-.14.09-.27v-.19h-.43c-.11,0-.2-.01-.29-.04s-.16-.07-.22-.12c-.06-.06-.11-.14-.14-.23-.03-.1-.05-.22-.05-.36,0-.14.02-.26.05-.36.04-.1.08-.19.15-.26.06-.07.13-.12.21-.16.08-.04.17-.05.27-.05.22,0,.39.07.5.2s.16.34.16.61v.57h.27c.05,0,.09,0,.11.02.03.01.04.04.04.08,0,.05-.01.08-.04.1-.02.01-.06.02-.12.02h-.27v.19c0,.2-.04.34-.12.43-.08.09-.21.13-.39.13h-.53ZM39.33,7.61c-.14,0-.25.05-.33.16-.08.11-.13.26-.13.47,0,.1,0,.19.03.25.02.07.05.12.09.16.04.04.09.07.15.09s.13.03.21.03h.43v-.56c0-.19-.03-.34-.1-.45-.07-.11-.18-.16-.34-.16ZM39.04,6.99s-.04-.06-.05-.09c-.02-.04-.02-.08-.02-.13,0-.03,0-.07.02-.11.01-.04.03-.08.06-.12s.07-.07.12-.09c.05-.02.12-.04.2-.04.07,0,.12.01.18.04.05.03.09.06.12.09.01.02.01.03,0,.05l-.08.07s-.01,0-.03-.02c-.03-.02-.06-.04-.09-.06-.04-.02-.08-.03-.13-.03-.09,0-.15.02-.18.07-.03.05-.05.09-.05.14,0,.06.02.11.05.14.03.04.06.06.09.08h.44s.02,0,.02.03v.09s0,.03-.02.03h-.77s-.02,0-.02-.03v-.09s0-.03.02-.03h.12Z"/>
      <path class="cls-3" d="M41.35,9.02c-.11,0-.21-.02-.3-.05-.09-.03-.16-.09-.22-.16-.05.08-.1.13-.16.15-.06.02-.13.03-.2.03h-.22c-.05,0-.09,0-.11-.02-.03-.01-.04-.04-.04-.08,0-.05.01-.08.04-.09.02-.01.06-.02.12-.02h.21s.06,0,.08-.02.05-.03.08-.05c.02-.03.04-.06.06-.1.02-.04.02-.1.02-.16,0-.03,0-.06,0-.1,0-.03,0-.07,0-.1,0-.56.22-.84.66-.84.22,0,.38.07.5.2s.17.34.17.6-.06.49-.17.62c-.11.13-.28.2-.49.2ZM41.35,7.61c-.16,0-.27.05-.34.16-.07.11-.11.26-.11.44,0,.2.04.35.11.44.07.1.18.15.34.15s.27-.05.34-.15c.07-.1.11-.24.11-.44,0-.19-.04-.33-.11-.44-.07-.11-.19-.16-.34-.16Z"/>
    </g>
    <g>
      <path class="cls-3" d="M1.28,11.51v-.16s.01-.04.04-.04h.25s.04.01.04.04v1.3c0,.08.01.13.04.16.03.03.08.04.14.04h.17c.1,0,.15.05.15.15,0,.06-.01.1-.04.12-.02.02-.06.02-.12.02h-.23c-.13,0-.22-.02-.29-.07-.07-.05-.12-.13-.14-.24-.05.05-.11.08-.18.1-.07.02-.15.03-.23.03-.1,0-.19-.01-.28-.04-.09-.03-.16-.07-.22-.13-.06-.06-.11-.13-.15-.22-.04-.09-.05-.19-.05-.31,0-.14.02-.26.06-.36.04-.1.09-.18.16-.24.07-.06.14-.1.23-.13s.18-.04.27-.04h.38ZM.89,12.68c.15,0,.25-.04.31-.13.06-.09.09-.21.09-.36v-.38h-.38c-.12,0-.22.03-.29.1-.08.07-.11.19-.11.37,0,.13.03.23.1.3.07.07.16.1.28.1ZM.55,11.05s-.04-.01-.04-.04v-.28s.01-.04.04-.04h.26s.04.01.04.04v.28s-.01.04-.04.04h-.26ZM1.02,11.05s-.04-.01-.04-.04v-.28s.01-.04.04-.04h.26s.04.01.04.04v.28s-.01.04-.04.04h-.26Z"/>
      <path class="cls-3" d="M1.96,13.15c-.05,0-.09-.01-.1-.03-.02-.02-.03-.06-.03-.11,0-.06,0-.11.02-.12s.05-.03.11-.03h.42c.05,0,.09.01.12.03.03.02.04.06.04.11,0,.06-.01.11-.04.13s-.06.03-.12.03h-.42Z"/>
      <path class="cls-3" d="M2.39,13.15c-.05,0-.09-.01-.1-.03-.02-.02-.03-.06-.03-.11,0-.06,0-.11.02-.12s.05-.03.11-.03h.42c.05,0,.09.01.12.03.03.02.04.06.04.11,0,.06-.01.11-.04.13s-.06.03-.12.03h-.42Z"/>
      <path class="cls-3" d="M2.81,13.15c-.05,0-.09-.01-.1-.03-.02-.02-.03-.06-.03-.11,0-.06,0-.11.02-.12s.05-.03.11-.03h.42c.05,0,.09.01.12.03.03.02.04.06.04.11,0,.06-.01.11-.04.13s-.06.03-.12.03h-.42Z"/>
      <path class="cls-3" d="M3.26,13.15c-.05,0-.09,0-.12-.03-.03-.02-.04-.05-.04-.11,0-.06.01-.11.04-.13s.06-.03.12-.03h.26c.06,0,.11-.01.14-.04.03-.03.04-.08.04-.16v-1.03s.01-.04.04-.04h.25s.04.01.04.04v.97c0,.09.03.15.09.2.06.04.15.07.25.07h.05c.05,0,.09.01.12.03.03.02.04.06.04.11,0,.07-.01.11-.04.13-.02.02-.06.03-.12.03h-.08c-.08,0-.15-.02-.21-.05-.06-.03-.11-.08-.14-.15-.06.13-.2.2-.4.2h-.32ZM3.46,13.86s-.04-.01-.04-.04v-.28s.01-.04.04-.04h.26s.04.01.04.04v.28s-.01.04-.04.04h-.26ZM3.92,13.86s-.04-.01-.04-.04v-.28s.01-.04.04-.04h.26s.04.01.04.04v.28s-.01.04-.04.04h-.26Z"/>
      <path class="cls-3" d="M5.4,11.51c.13,0,.24.02.34.05s.17.08.24.14c.06.06.11.13.14.22.03.09.05.18.05.28,0,.13-.03.25-.09.36-.06.11-.14.21-.25.28.01,0,.03,0,.06,0h.53c.05,0,.09,0,.12.03.03.02.04.05.04.11,0,.06-.01.11-.04.13s-.06.03-.12.03h-.51c-.09,0-.18,0-.26-.01-.08,0-.16-.03-.23-.08-.08.05-.17.07-.27.08s-.18.01-.25.01h-.46c-.1,0-.15-.05-.15-.15,0-.06.01-.1.04-.12.02-.02.06-.02.12-.02h.56c-.1-.07-.19-.17-.25-.28-.06-.11-.09-.23-.09-.36,0-.1.02-.2.05-.28.03-.09.08-.16.14-.22.06-.06.14-.11.24-.14.09-.03.21-.05.34-.05ZM5.4,11.81c-.12,0-.22.04-.3.11-.08.07-.12.18-.12.31s.04.25.12.35c.08.09.18.16.3.21.12-.05.22-.12.3-.21.08-.09.12-.21.12-.35s-.04-.24-.12-.31c-.08-.07-.18-.11-.3-.11ZM5.27,11.2s-.04-.01-.04-.04v-.28s.01-.04.04-.04h.26s.04.01.04.04v.28s-.01.04-.04.04h-.26Z"/>
      <path class="cls-3" d="M6.46,13.15c-.05,0-.09,0-.12-.03-.02-.02-.04-.06-.04-.13,0-.05.01-.09.04-.11.03-.02.06-.03.11-.03h.43c-.07-.13-.11-.29-.11-.5,0-.15.02-.27.06-.38.04-.11.09-.19.16-.26.07-.07.14-.12.23-.15.09-.03.18-.05.29-.05.23,0,.41.07.54.2s.2.34.2.64c0,.15-.02.27-.05.37-.03.1-.08.18-.15.25s-.14.11-.23.14c-.09.03-.19.04-.3.04h-1.05ZM7.15,11.2s-.04-.01-.04-.04v-.28s.01-.04.04-.04h.26s.04.01.04.04v.28s-.01.04-.04.04h-.26ZM7.52,11.81c-.14,0-.24.05-.31.14s-.1.22-.1.38c0,.19.03.32.1.4.07.08.17.12.31.12s.25-.04.31-.11.1-.2.1-.39c0-.17-.03-.3-.1-.39-.07-.09-.17-.14-.31-.14ZM7.61,11.2s-.04-.01-.04-.04v-.28s.01-.04.04-.04h.26s.04.01.04.04v.28s-.01.04-.04.04h-.26Z"/>
      <path class="cls-3" d="M9.02,13.91s-.04-.01-.04-.04v-.22s.01-.04.04-.04h.46c.05,0,.1,0,.14-.02s.08-.03.11-.06.06-.06.07-.11c.02-.05.03-.11.03-.18v-.1h-.41c-.11,0-.21-.01-.3-.04-.09-.03-.17-.07-.23-.13-.06-.06-.11-.14-.15-.24s-.05-.22-.05-.37.02-.27.06-.38c.04-.11.09-.2.16-.27.07-.07.15-.12.24-.16s.18-.05.28-.05c.23,0,.4.07.53.2.13.13.19.34.19.64v.5h.26c.05,0,.09.01.12.03.03.02.04.06.04.11,0,.07-.01.11-.04.13s-.06.03-.12.03h-.26v.09c0,.12-.02.22-.05.31-.03.08-.08.15-.13.21-.06.05-.13.09-.21.12-.08.03-.17.04-.27.04h-.48ZM9.43,11.81c-.13,0-.23.05-.3.15-.08.1-.11.24-.11.41,0,.18.04.31.11.38.07.07.18.1.32.1h.39v-.5c0-.17-.03-.3-.09-.39-.06-.09-.17-.14-.31-.14Z"/>
      <path class="cls-3" d="M10.42,13.15c-.05,0-.09,0-.12-.03-.03-.02-.04-.05-.04-.11,0-.06.01-.11.04-.13.02-.02.06-.03.12-.03h.24c.06,0,.11-.01.14-.04.03-.03.04-.08.04-.16v-2.07s.01-.04.04-.04h.25s.04.01.04.04v2.08c0,.17-.03.29-.1.37-.07.08-.18.12-.34.12h-.3Z"/>
      <path class="cls-3" d="M12.03,13.11s-.01.04-.04.04h-.25s-.04-.01-.04-.04v-2.53s.01-.04.04-.04h.25s.04.01.04.04v2.53Z"/>
      <path class="cls-3" d="M14.88,12.59c0,.09.03.15.09.2.06.04.15.07.25.07h.04c.05,0,.09.01.12.03.03.02.04.06.04.11,0,.07-.01.11-.04.13s-.06.03-.12.03h-.08c-.09,0-.16-.02-.23-.06-.07-.04-.12-.09-.15-.17-.04.08-.1.14-.18.17s-.18.05-.3.05h-.85s-.04-.01-.04-.04v-.22s.01-.04.04-.04h.73c.07,0,.13,0,.17-.02s.08-.03.1-.06c.02-.03.04-.06.05-.11s.01-.1.01-.16v-.31c0-.26-.15-.39-.44-.39h-.44s-.04-.01-.04-.04v-.22s.01-.04.04-.04h.56c.19,0,.35.05.48.16.12.11.18.28.18.52v.39Z"/>
      <path class="cls-3" d="M15.27,13.15c-.05,0-.09-.01-.1-.03-.02-.02-.03-.06-.03-.11,0-.06,0-.11.02-.12s.05-.03.11-.03h.42c.05,0,.09.01.12.03.03.02.04.06.04.11,0,.06-.01.11-.04.13s-.06.03-.12.03h-.42Z"/>
      <path class="cls-3" d="M15.69,13.15c-.05,0-.09-.01-.1-.03-.02-.02-.03-.06-.03-.11,0-.06,0-.11.02-.12s.05-.03.11-.03h.42c.05,0,.09.01.12.03.03.02.04.06.04.11,0,.06-.01.11-.04.13s-.06.03-.12.03h-.42Z"/>
      <path class="cls-3" d="M16.12,13.15c-.05,0-.09-.01-.1-.03-.02-.02-.03-.06-.03-.11,0-.06,0-.11.02-.12s.05-.03.11-.03h.42c.05,0,.09.01.12.03.03.02.04.06.04.11,0,.06-.01.11-.04.13s-.06.03-.12.03h-.42Z"/>
      <path class="cls-3" d="M16.54,13.15c-.05,0-.09,0-.12-.03-.03-.02-.04-.05-.04-.11,0-.06.01-.11.04-.13.02-.02.06-.03.12-.03h.26c.06,0,.11-.01.14-.04.03-.03.04-.08.04-.16v-1.03s.01-.04.04-.04h.25s.04.01.04.04v1.05c0,.17-.03.29-.1.37s-.18.12-.34.12h-.32ZM16.7,13.86s-.04-.01-.04-.04v-.28s.01-.04.04-.04h.26s.04.01.04.04v.28s-.01.04-.04.04h-.26ZM17.17,13.86s-.04-.01-.04-.04v-.28s.01-.04.04-.04h.26s.04.01.04.04v.28s-.01.04-.04.04h-.26Z"/>
      <path class="cls-3" d="M17.63,13.91s-.04-.01-.04-.04v-.22s.01-.04.04-.04h.09c.21,0,.31-.11.31-.33v-1.67s.01-.04.04-.04h.25s.04.01.04.04v1.66c0,.21-.05.36-.16.47-.1.11-.26.16-.46.16h-.1ZM18.07,11.2s-.04-.01-.04-.04v-.28s.01-.04.04-.04h.26s.04.01.04.04v.28s-.01.04-.04.04h-.26Z"/>
      <path class="cls-3" d="M19.95,12.29s.03-.02.05,0l.21.11s.02.03.01.05c-.05.07-.09.16-.13.26s-.06.21-.06.33.02.2.06.27c.04.07.08.13.14.17.06.04.12.07.19.09.07.02.14.03.2.03.16,0,.3-.04.4-.13s.16-.22.16-.41v-1.12s.01-.04.04-.04h.25s.04.01.04.04v.64c0,.09.03.15.09.2.06.04.15.07.25.07h.02c.05,0,.09.01.11.03s.04.06.04.11c0,.07-.01.11-.04.13-.02.02-.06.03-.12.03h-.05c-.13,0-.24-.04-.31-.12v.05c0,.26-.08.47-.23.62-.15.15-.38.22-.67.22-.14,0-.26-.02-.37-.06-.11-.04-.21-.09-.28-.16s-.14-.16-.18-.26c-.04-.1-.07-.22-.07-.36,0-.15.02-.3.07-.43.05-.14.11-.26.17-.35ZM20.6,11.82s-.04-.01-.04-.04v-.28s.01-.04.04-.04h.26s.04.01.04.04v.28s-.01.04-.04.04h-.26Z"/>
      <path class="cls-3" d="M21.87,13.15c-.05,0-.09-.01-.1-.03-.02-.02-.03-.06-.03-.11,0-.06,0-.11.02-.12s.05-.03.11-.03h.42c.05,0,.09.01.12.03.03.02.04.06.04.11,0,.06-.01.11-.04.13s-.06.03-.12.03h-.42Z"/>
      <path class="cls-3" d="M22.29,13.15c-.05,0-.09-.01-.1-.03-.02-.02-.03-.06-.03-.11,0-.06,0-.11.02-.12s.05-.03.11-.03h.42c.05,0,.09.01.12.03.03.02.04.06.04.11,0,.06-.01.11-.04.13s-.06.03-.12.03h-.42Z"/>
      <path class="cls-3" d="M22.72,13.15c-.05,0-.09-.01-.1-.03-.02-.02-.03-.06-.03-.11,0-.06,0-.11.02-.12s.05-.03.11-.03h.42c.05,0,.09.01.12.03.03.02.04.06.04.11,0,.06-.01.11-.04.13s-.06.03-.12.03h-.42Z"/>
      <path class="cls-3" d="M23.14,13.15c-.05,0-.09,0-.12-.03-.03-.02-.04-.05-.04-.11,0-.06.01-.11.04-.13.02-.02.06-.03.12-.03h.24c.06,0,.11-.01.14-.04.03-.03.04-.08.04-.16v-1.03s.01-.04.04-.04h.25s.04.01.04.04v1.05c0,.17-.03.29-.1.37-.07.08-.18.12-.34.12h-.3ZM23.51,13.85s-.04-.01-.04-.04v-.28s.01-.04.04-.04h.26s.04.01.04.04v.28s-.01.04-.04.04h-.26Z"/>
      <path class="cls-3" d="M25.11,13.91s-.04-.01-.04-.04v-.22s.01-.04.04-.04h.09c.21,0,.31-.11.31-.33v-1.67s.01-.04.04-.04h.25s.04.01.04.04v.97c0,.09.03.15.09.2.06.04.15.07.25.07h.04c.05,0,.09.01.12.03.03.02.04.06.04.11,0,.07-.01.11-.04.13s-.06.03-.12.03h-.08c-.13,0-.24-.04-.31-.12v.25c0,.21-.05.36-.16.47-.1.11-.26.16-.46.16h-.1Z"/>
      <path class="cls-3" d="M26.22,13.15c-.05,0-.09,0-.12-.03-.03-.02-.04-.05-.04-.11,0-.06.01-.11.04-.13.02-.02.06-.03.12-.03h.24c.06,0,.11-.01.14-.04.03-.03.04-.08.04-.16v-1.03s.01-.04.04-.04h.25s.04.01.04.04v1.05c0,.17-.03.29-.1.37-.07.08-.18.12-.34.12h-.3ZM26.59,13.85s-.04-.01-.04-.04v-.28s.01-.04.04-.04h.26s.04.01.04.04v.28s-.01.04-.04.04h-.26Z"/>
      <path class="cls-3" d="M27.5,10.58s.01-.04.04-.04h.25s.04.01.04.04v2.07c0,.08.01.13.04.16.03.03.08.04.14.04h.17c.1,0,.15.05.15.15,0,.06-.01.1-.04.12-.02.02-.06.02-.12.02h-.23c-.16,0-.28-.04-.34-.12s-.1-.2-.1-.37v-2.08Z"/>
      <path class="cls-3" d="M28.18,13.15c-.05,0-.09-.01-.1-.03-.02-.02-.03-.06-.03-.11,0-.06,0-.11.02-.12s.05-.03.11-.03h.42c.05,0,.09.01.12.03.03.02.04.06.04.11,0,.06-.01.11-.04.13s-.06.03-.12.03h-.42Z"/>
      <path class="cls-3" d="M28.61,13.15c-.05,0-.09-.01-.1-.03-.02-.02-.03-.06-.03-.11,0-.06,0-.11.02-.12s.05-.03.11-.03h.42c.05,0,.09.01.12.03.03.02.04.06.04.11,0,.06-.01.11-.04.13s-.06.03-.12.03h-.42Z"/>
      <path class="cls-3" d="M29.03,13.15c-.05,0-.09-.01-.1-.03-.02-.02-.03-.06-.03-.11,0-.06,0-.11.02-.12s.05-.03.11-.03h.42c.05,0,.09.01.12.03.03.02.04.06.04.11,0,.06-.01.11-.04.13s-.06.03-.12.03h-.42Z"/>
      <path class="cls-3" d="M30.35,11.81c-.09,0-.17.02-.24.05-.07.04-.14.08-.19.15-.02.02-.03.02-.05,0l-.17-.14s-.03-.04-.01-.05c.07-.09.16-.16.27-.22.11-.06.24-.09.39-.09.18,0,.32.03.43.08.11.05.2.13.27.22.07.09.11.19.14.31.03.12.04.24.04.36s-.01.23-.03.32c-.02.08-.05.15-.1.2-.04.05-.1.09-.17.11-.07.02-.15.03-.25.03h-1.21c-.1,0-.15-.05-.15-.15,0-.06.01-.1.04-.12.02-.02.06-.02.12-.02h1.09c.07,0,.13,0,.17-.02s.08-.03.1-.06c.02-.03.04-.07.05-.11,0-.05.01-.11.01-.17,0-.1,0-.19-.03-.27-.02-.08-.05-.15-.09-.21-.04-.06-.09-.11-.16-.14-.07-.03-.15-.05-.25-.05ZM30.28,13.85s-.04-.01-.04-.04v-.28s.01-.04.04-.04h.26s.04.01.04.04v.28s-.01.04-.04.04h-.26Z"/>
      <path class="cls-3" d="M33.67,13.18c-.13,0-.25-.02-.35-.07-.1-.04-.18-.11-.25-.21-.03.04-.06.07-.09.09-.03.02-.07.04-.1.06-.03.02-.06.05-.08.08-.02.03-.03.09-.03.16v.62h-.32v-.71c0-.08.01-.14.03-.2.02-.05.05-.1.09-.13s.07-.06.12-.09c.04-.02.08-.05.12-.07.04-.02.07-.05.1-.08.03-.03.04-.07.05-.12,0-.03,0-.06,0-.09,0-.03,0-.06,0-.09,0-.29.07-.51.2-.64s.31-.2.54-.2.41.07.54.2.2.34.2.64c0,.15-.02.27-.05.38s-.08.19-.15.26c-.06.07-.14.12-.23.15-.09.03-.19.05-.3.05ZM33.67,11.81c-.14,0-.25.05-.31.14-.07.09-.1.23-.1.39,0,.18.03.32.1.4.07.08.17.13.31.13s.25-.04.31-.13c.07-.08.1-.22.1-.4,0-.17-.03-.3-.1-.39-.07-.09-.17-.14-.31-.14Z"/>
      <path class="cls-3" d="M34.88,10.58s.01-.04.04-.04h.25s.04.01.04.04v2.07c0,.08.01.13.04.16.03.03.08.04.14.04h.17c.1,0,.15.05.15.15,0,.06-.01.1-.04.12-.02.02-.06.02-.12.02h-.23c-.16,0-.28-.04-.34-.12s-.1-.2-.1-.37v-2.08Z"/>
      <path class="cls-3" d="M35.56,13.15c-.05,0-.09-.01-.1-.03-.02-.02-.03-.06-.03-.11,0-.06,0-.11.02-.12s.05-.03.11-.03h.42c.05,0,.09.01.12.03.03.02.04.06.04.11,0,.06-.01.11-.04.13s-.06.03-.12.03h-.42Z"/>
      <path class="cls-3" d="M35.99,13.15c-.05,0-.09-.01-.1-.03-.02-.02-.03-.06-.03-.11,0-.06,0-.11.02-.12s.05-.03.11-.03h.42c.05,0,.09.01.12.03.03.02.04.06.04.11,0,.06-.01.11-.04.13s-.06.03-.12.03h-.42Z"/>
      <path class="cls-3" d="M36.41,13.15c-.05,0-.09-.01-.1-.03-.02-.02-.03-.06-.03-.11,0-.06,0-.11.02-.12s.05-.03.11-.03h.42c.05,0,.09.01.12.03.03.02.04.06.04.11,0,.06-.01.11-.04.13s-.06.03-.12.03h-.42Z"/>
      <path class="cls-3" d="M37.99,13.18c-.12,0-.23-.02-.32-.05-.09-.03-.17-.09-.23-.16-.05.08-.12.13-.21.16-.08.02-.16.03-.23.03h-.16c-.1,0-.15-.05-.15-.15,0-.06.01-.1.04-.12.02-.02.06-.02.12-.02h.19s.06,0,.08-.02c.03-.01.05-.03.08-.06.02-.03.04-.06.06-.11.01-.04.02-.1.02-.17,0-.03,0-.05,0-.07v-.08c0-.29.07-.51.2-.64s.31-.2.54-.2.41.07.54.2c.13.13.2.34.2.64,0,.15-.02.27-.05.38s-.08.19-.15.26c-.06.07-.14.12-.23.15-.09.03-.19.05-.3.05ZM37.99,11.81c-.14,0-.25.05-.31.14-.07.09-.1.23-.1.39,0,.18.03.32.1.4.07.08.17.13.31.13s.25-.04.31-.13c.07-.08.1-.22.1-.4,0-.17-.03-.3-.1-.39-.07-.09-.17-.14-.31-.14Z"/>
      <path class="cls-3" d="M40.2,12.85h.45c.06,0,.11-.01.14-.04s.04-.08.04-.16v-2.07s.01-.04.04-.04h.25s.04.01.04.04v2.08c0,.17-.03.29-.1.37-.07.08-.18.12-.34.12h-1.58s-.04-.01-.04-.04v-.22s.01-.04.04-.04h.75v-1.73s.01-.04.04-.04h.25s.04.01.04.04v1.73ZM39.79,14.03s-.04-.07-.05-.11c-.01-.04-.02-.08-.02-.13,0-.04,0-.08.02-.13s.03-.09.07-.12c.03-.04.07-.07.12-.09.05-.02.11-.04.19-.04.07,0,.13.01.18.03.05.02.09.06.12.1,0,.02,0,.03,0,.04l-.08.07s-.03.02-.04,0c-.02-.03-.05-.05-.08-.06-.03-.02-.07-.02-.1-.02-.07,0-.12.02-.16.07s-.05.09-.05.15.01.11.04.15.06.07.09.09h.39s.02,0,.02.03v.11s0,.03-.02.03h-.78s-.02,0-.02-.03v-.11s0-.03.02-.03h.15Z"/>
      <path class="cls-3" d="M42.01,13.11s-.01.04-.04.04h-.25s-.04-.01-.04-.04v-2.53s.01-.04.04-.04h.25s.04.01.04.04v2.53Z"/>
    </g>
    <g>
      <path class="cls-3" d="M0,14.89s.01-.04.04-.04h.25s.04.01.04.04v2.42s-.01.04-.04.04H.04s-.04-.01-.04-.04v-2.42Z"/>
      <path class="cls-3" d="M3.27,17.34s-.04-.01-.04-.04v-1.02c0-.14-.03-.25-.1-.33s-.16-.12-.29-.12c-.12,0-.21.04-.29.12-.08.08-.11.18-.11.31v1.04s-.01.04-.04.04h-.23s-.04-.01-.04-.04v-1.02c0-.14-.03-.25-.1-.33-.06-.08-.16-.12-.29-.12-.12,0-.22.04-.29.12-.07.08-.11.18-.11.31v1.04s-.01.04-.04.04h-.23s-.04-.01-.04-.04v-1.68s.01-.04.04-.04h.23s.04.01.04.04v.16h0c.04-.07.1-.13.19-.17.08-.05.18-.07.3-.07s.22.02.31.07c.09.05.15.12.2.2h0c.06-.09.14-.15.23-.2s.2-.07.34-.07c.2,0,.36.06.47.18.11.12.16.28.16.48v1.1s-.01.04-.04.04h-.23Z"/>
      <path class="cls-3" d="M5.27,17.34s-.04-.01-.04-.04v-.15h0c-.04.07-.1.12-.19.16-.09.04-.2.07-.33.07-.08,0-.16-.01-.23-.03-.07-.02-.13-.05-.19-.1-.05-.04-.09-.1-.12-.16s-.05-.14-.05-.23c0-.19.06-.32.18-.41s.29-.13.5-.13h.4s.02,0,.02-.02v-.13c0-.12-.03-.21-.09-.26-.06-.05-.17-.08-.33-.08-.1,0-.18.01-.25.03s-.12.05-.18.09c-.02.02-.04.02-.05,0l-.1-.17s0-.04,0-.05c.07-.05.15-.09.25-.12.1-.03.22-.05.35-.05.25,0,.43.05.53.14.1.09.16.24.16.46v1.16s-.01.04-.04.04h-.22ZM4.78,17.12c.14,0,.25-.03.33-.09.08-.06.12-.14.12-.25v-.19s0-.02-.02-.02h-.35c-.15,0-.26.02-.33.07-.07.05-.1.12-.1.22,0,.09.03.16.1.21s.15.07.27.07Z"/>
      <path class="cls-3" d="M8.44,17.34s-.04-.01-.04-.04v-1.02c0-.14-.03-.25-.1-.33s-.16-.12-.29-.12c-.12,0-.21.04-.29.12-.08.08-.11.18-.11.31v1.04s-.01.04-.04.04h-.23s-.04-.01-.04-.04v-1.02c0-.14-.03-.25-.1-.33-.06-.08-.16-.12-.29-.12-.12,0-.22.04-.29.12-.07.08-.11.18-.11.31v1.04s-.01.04-.04.04h-.23s-.04-.01-.04-.04v-1.68s.01-.04.04-.04h.23s.04.01.04.04v.16h0c.04-.07.1-.13.19-.17.08-.05.18-.07.3-.07s.22.02.31.07c.09.05.15.12.2.2h0c.06-.09.14-.15.23-.2s.2-.07.34-.07c.2,0,.36.06.47.18.11.12.16.28.16.48v1.1s-.01.04-.04.04h-.23Z"/>
      <path class="cls-3" d="M10.18,17.12s-.02-.03,0-.05l.18-.16s.04-.01.05,0c.04.04.09.07.15.1.06.03.13.05.21.05.15,0,.26-.04.34-.13.08-.09.12-.22.12-.4v-1.65s.01-.04.04-.04h.25s.04.01.04.04v1.65c0,.28-.07.49-.22.63-.14.14-.34.21-.58.21-.12,0-.24-.02-.34-.07-.1-.05-.19-.11-.25-.18Z"/>
      <path class="cls-3" d="M13.31,17.34s-.04-.01-.04-.04v-.15h0c-.04.07-.1.12-.19.16-.09.04-.2.07-.33.07-.08,0-.16-.01-.23-.03-.07-.02-.13-.05-.19-.1-.05-.04-.09-.1-.12-.16s-.05-.14-.05-.23c0-.19.06-.32.18-.41s.29-.13.5-.13h.4s.02,0,.02-.02v-.13c0-.12-.03-.21-.09-.26-.06-.05-.17-.08-.33-.08-.1,0-.18.01-.25.03s-.12.05-.18.09c-.02.02-.04.02-.05,0l-.1-.17s0-.04,0-.05c.07-.05.15-.09.25-.12.1-.03.22-.05.35-.05.25,0,.43.05.53.14.1.09.16.24.16.46v1.16s-.01.04-.04.04h-.22ZM12.82,17.12c.14,0,.25-.03.33-.09.08-.06.12-.14.12-.25v-.19s0-.02-.02-.02h-.35c-.15,0-.26.02-.33.07-.07.05-.1.12-.1.22,0,.09.03.16.1.21s.15.07.27.07Z"/>
      <path class="cls-3" d="M14.27,17.34s-.04-.01-.04-.04v-2.42s.01-.04.04-.04h.23s.04.01.04.04v.9h0c.04-.07.1-.13.18-.17.08-.05.18-.07.32-.07.15,0,.28.04.38.11s.18.18.22.31c.02.07.04.14.05.22s.01.17.01.28,0,.2-.01.28-.03.15-.05.22c-.04.14-.12.24-.22.31-.1.07-.23.11-.38.11-.13,0-.24-.02-.32-.07-.08-.05-.14-.1-.18-.18h0v.17s-.01.04-.04.04h-.23ZM14.97,17.1c.2,0,.32-.09.38-.27.01-.05.03-.1.03-.16,0-.06,0-.13,0-.21s0-.15,0-.2c0-.06-.02-.11-.03-.16-.06-.18-.19-.26-.38-.26s-.33.09-.39.26c-.01.04-.03.09-.03.15,0,.06,0,.13,0,.22s0,.16,0,.22.02.11.03.15c.06.18.19.27.39.27Z"/>
      <path class="cls-3" d="M16.33,15.19s-.04-.01-.04-.04v-.27s.01-.04.04-.04h.25s.04.01.04.04v.27s-.01.04-.04.04h-.25ZM16.33,17.34s-.04-.01-.04-.04v-1.68s.01-.04.04-.04h.23s.04.01.04.04v1.68s-.01.04-.04.04h-.23Z"/>
      <path class="cls-3" d="M17.33,17.34s-.04-.01-.04-.04v-1.68s.01-.04.04-.04h.23s.04.01.04.04v.18h0c.04-.08.1-.14.17-.18.08-.05.17-.07.29-.07.07,0,.14.01.2.03s.12.06.16.1c.02.02.02.03,0,.05l-.14.18s-.03.02-.05,0c-.04-.03-.08-.05-.13-.06-.04-.01-.09-.02-.14-.02-.13,0-.23.05-.29.14-.06.09-.09.22-.09.37v.96s-.01.04-.04.04h-.23Z"/>
      <path class="cls-3" d="M19.86,14.89s.01-.04.04-.04h.88c.25,0,.44.06.56.18.12.12.19.28.19.48,0,.15-.03.26-.09.35-.06.09-.14.15-.24.19h0s.08.04.13.07c.05.03.09.07.12.12s.07.1.09.17.03.14.03.22c0,.23-.07.41-.21.53-.14.12-.34.18-.6.18h-.86s-.04-.01-.04-.04v-2.42ZM20.78,15.93c.14,0,.25-.04.32-.11.08-.07.11-.16.11-.28s-.04-.21-.11-.29c-.08-.07-.18-.11-.32-.11h-.56s-.02,0-.02.02v.74s0,.02.02.02h.56ZM20.19,17.02s0,.02.02.02h.58c.15,0,.26-.04.34-.11.08-.07.12-.17.12-.3s-.04-.22-.12-.3c-.08-.07-.19-.11-.34-.11h-.58s-.02,0-.02.02v.78Z"/>
      <path class="cls-3" d="M22.19,15.19s-.04-.01-.04-.04v-.27s.01-.04.04-.04h.25s.04.01.04.04v.27s-.01.04-.04.04h-.25ZM22.2,17.34s-.04-.01-.04-.04v-1.68s.01-.04.04-.04h.23s.04.01.04.04v1.68s-.01.04-.04.04h-.23Z"/>
      <path class="cls-3" d="M24.3,17.34s-.04-.01-.04-.04v-1.02c0-.14-.03-.25-.1-.33-.06-.08-.16-.12-.29-.12-.12,0-.22.04-.29.12-.07.08-.11.18-.11.31v1.04s-.01.04-.04.04h-.23s-.04-.01-.04-.04v-1.68s.01-.04.04-.04h.23s.04.01.04.04v.16h0c.04-.07.1-.13.19-.17.08-.05.18-.07.3-.07.19,0,.34.06.45.18.11.12.16.28.16.48v1.1s-.01.04-.04.04h-.23Z"/>
      <path class="cls-3" d="M26.13,17.34s-.04-.01-.04-.04v-.23s0-.03.01-.04l1.22-1.87h0s-1.15,0-1.15,0c-.02,0-.04-.01-.04-.04v-.23s.01-.04.04-.04h1.49s.04.01.04.04v.23s0,.03-.01.04l-1.22,1.87h0s1.2,0,1.2,0c.02,0,.04.01.04.04v.23s-.01.04-.04.04h-1.53Z"/>
      <path class="cls-3" d="M29.33,17.34s-.04-.01-.04-.04v-.15h0c-.04.07-.1.12-.19.16-.09.04-.2.07-.33.07-.08,0-.16-.01-.23-.03-.07-.02-.13-.05-.19-.1-.05-.04-.09-.1-.12-.16s-.05-.14-.05-.23c0-.19.06-.32.18-.41s.29-.13.5-.13h.4s.02,0,.02-.02v-.13c0-.12-.03-.21-.09-.26-.06-.05-.17-.08-.33-.08-.1,0-.18.01-.25.03s-.12.05-.18.09c-.02.02-.04.02-.05,0l-.1-.17s0-.04,0-.05c.07-.05.15-.09.25-.12.1-.03.22-.05.35-.05.25,0,.43.05.53.14.1.09.16.24.16.46v1.16s-.01.04-.04.04h-.22ZM28.84,17.12c.14,0,.25-.03.33-.09.08-.06.12-.14.12-.25v-.19s0-.02-.02-.02h-.35c-.15,0-.26.02-.33.07-.07.05-.1.12-.1.22,0,.09.03.16.1.21s.15.07.27.07Z"/>
      <path class="cls-3" d="M30.29,15.19s-.04-.01-.04-.04v-.27s.01-.04.04-.04h.25s.04.01.04.04v.27s-.01.04-.04.04h-.25ZM30.29,17.34s-.04-.01-.04-.04v-1.68s.01-.04.04-.04h.23s.04.01.04.04v1.68s-.01.04-.04.04h-.23Z"/>
      <path class="cls-3" d="M32.35,17.34s-.04-.01-.04-.04v-.17h0c-.04.07-.1.13-.18.18-.08.05-.18.07-.32.07-.15,0-.28-.04-.38-.11-.1-.07-.18-.18-.22-.31-.02-.07-.04-.14-.05-.22,0-.08-.01-.17-.01-.28s0-.2.01-.28c0-.07.03-.15.05-.22.04-.14.12-.24.22-.31s.23-.11.38-.11c.13,0,.24.02.32.07.08.05.14.1.18.17h0v-.9s.01-.04.04-.04h.23s.04.01.04.04v2.42s-.01.04-.04.04h-.23ZM31.89,17.1c.2,0,.33-.09.39-.27.01-.04.03-.09.03-.15,0-.06,0-.13,0-.22s0-.16,0-.22c0-.06-.02-.11-.03-.15-.06-.18-.19-.26-.39-.26s-.32.09-.38.26c-.01.05-.03.1-.03.16,0,.06,0,.13,0,.2s0,.15,0,.21.02.11.03.16c.06.18.19.27.38.27Z"/>
      <path class="cls-3" d="M36,17.34s-.03-.01-.04-.04l-.53-1.86h0l-.53,1.86s-.02.04-.04.04h-.2s-.04-.01-.04-.04l-.6-2.42s0-.04.03-.04h.24s.04.01.04.04l.44,1.85h0l.52-1.85s.02-.04.04-.04h.19s.04.01.04.04l.53,1.85h0l.43-1.85s.02-.04.05-.04h.24s.03.01.03.04l-.6,2.42s-.02.04-.04.04h-.2Z"/>
      <path class="cls-3" d="M38.26,17.34s-.04-.01-.04-.04v-.15h0c-.04.07-.1.12-.19.16-.09.04-.2.07-.33.07-.08,0-.16-.01-.23-.03-.07-.02-.13-.05-.19-.1-.05-.04-.09-.1-.12-.16s-.05-.14-.05-.23c0-.19.06-.32.18-.41s.29-.13.5-.13h.4s.02,0,.02-.02v-.13c0-.12-.03-.21-.09-.26-.06-.05-.17-.08-.33-.08-.1,0-.18.01-.25.03s-.12.05-.18.09c-.02.02-.04.02-.05,0l-.1-.17s0-.04,0-.05c.07-.05.15-.09.25-.12.1-.03.22-.05.35-.05.25,0,.43.05.53.14.1.09.16.24.16.46v1.16s-.01.04-.04.04h-.22ZM37.77,17.12c.14,0,.25-.03.33-.09.08-.06.12-.14.12-.25v-.19s0-.02-.02-.02h-.35c-.15,0-.26.02-.33.07-.07.05-.1.12-.1.22,0,.09.03.16.1.21s.15.07.27.07Z"/>
      <path class="cls-3" d="M40.29,18s-.04-.01-.04-.04v-.83h0c-.04.07-.1.13-.18.18-.08.05-.18.07-.32.07-.15,0-.28-.04-.38-.11-.1-.07-.18-.18-.22-.31-.02-.07-.04-.14-.05-.22,0-.08-.01-.17-.01-.28s0-.2.01-.28c0-.07.03-.15.05-.22.04-.14.12-.24.22-.31s.23-.11.38-.11c.13,0,.24.02.32.07.08.05.14.1.18.17h0v-.16s.01-.04.04-.04h.23s.04.01.04.04v2.34s-.01.04-.04.04h-.23ZM39.82,17.1c.2,0,.33-.09.39-.27.01-.04.03-.09.03-.15,0-.06,0-.13,0-.22s0-.16,0-.22c0-.06-.02-.11-.03-.15-.06-.18-.19-.26-.39-.26s-.32.09-.38.26c-.01.05-.03.1-.03.16,0,.06,0,.13,0,.2s0,.15,0,.21.02.11.03.16c.06.18.19.27.38.27Z"/>
      <path class="cls-3" d="M41.34,17.34s-.04-.01-.04-.04v-1.45s0-.02-.02-.02h-.15s-.04-.01-.04-.04v-.18s.01-.04.04-.04h.15s.02,0,.02-.02v-.15c0-.21.04-.35.13-.44.09-.08.22-.13.4-.13h.14s.04.01.04.04v.21s-.01.04-.04.04h-.1c-.06,0-.1,0-.14.01-.03,0-.06.02-.08.04s-.03.05-.04.08c0,.03-.01.08-.01.13v.16s0,.02.02.02h.34s.04.01.04.04v.18s-.01.04-.04.04h-.34s-.02,0-.02.02v1.45s-.01.04-.04.04h-.23Z"/>
    </g>
    <g>
      <path class="cls-3" d="M26.18,18.9s.01-.03.04-.03h1.35s.03.01.03.03v.12s-.01.03-.03.03h-1.16s-.02,0-.02.02v.86s0,.02.02.02h1s.03.01.03.03v.12s-.01.03-.03.03h-1s-.02,0-.02.02v1.02s-.01.03-.04.03h-.13s-.04-.01-.04-.03v-2.29Z"/>
      <path class="cls-3" d="M28.54,21.26c-.15,0-.28-.04-.39-.11-.11-.07-.18-.18-.23-.32-.02-.06-.03-.12-.04-.18s-.01-.15-.01-.25,0-.18.01-.25.02-.13.04-.18c.05-.14.12-.24.23-.32.11-.07.24-.11.39-.11s.28.04.39.11c.11.07.18.18.23.32.02.06.03.12.04.18,0,.07.01.15.01.25s0,.19-.01.25c0,.07-.02.13-.04.18-.05.14-.12.24-.23.32-.11.07-.24.11-.39.11ZM28.54,21.08c.11,0,.2-.03.28-.08s.13-.13.16-.23c.02-.05.03-.1.03-.15,0-.06.01-.13.01-.22s0-.16-.01-.22-.02-.11-.03-.15c-.03-.1-.09-.18-.16-.23-.08-.05-.17-.08-.28-.08s-.2.03-.27.08c-.08.05-.13.13-.16.23-.02.05-.03.1-.03.15s-.01.13-.01.22,0,.16.01.22c0,.06.02.11.03.15.03.1.09.18.16.23s.17.08.27.08Z"/>
      <path class="cls-3" d="M30.81,21.23s-.03-.01-.03-.03v-.19h0c-.04.08-.1.14-.19.19s-.18.07-.29.07c-.18,0-.33-.05-.42-.16s-.15-.26-.15-.46v-1.03s.01-.03.03-.03h.12s.03.01.03.03v.98c0,.33.14.5.43.5.06,0,.12-.01.17-.03.05-.02.1-.05.14-.09.04-.04.07-.09.09-.15.02-.06.03-.12.03-.19v-1.01s.01-.03.03-.03h.12s.03.01.03.03v1.58s-.01.03-.03.03h-.12Z"/>
      <path class="cls-3" d="M32.7,21.23s-.03-.01-.03-.03v-.98c0-.33-.14-.5-.43-.5-.13,0-.23.04-.32.12-.09.08-.13.19-.13.34v1.01s-.01.03-.03.03h-.12s-.03-.01-.03-.03v-1.58s.01-.03.03-.03h.12s.03.01.03.03v.2h0c.04-.08.1-.15.19-.19.08-.05.18-.07.3-.07.18,0,.33.05.43.16.1.11.15.26.15.47v1.02s-.01.03-.03.03h-.12Z"/>
      <path class="cls-3" d="M34.52,21.23s-.03-.01-.03-.03v-.2h0c-.04.08-.1.14-.18.19s-.19.08-.33.08c-.29,0-.48-.13-.56-.39-.02-.07-.04-.14-.05-.21,0-.08-.01-.16-.01-.25s0-.18.01-.25c0-.08.02-.15.05-.21.08-.26.27-.39.56-.39.14,0,.25.03.33.08.08.05.14.12.18.19h0v-.9s.01-.03.03-.03h.12s.03.01.03.03v2.29s-.01.03-.03.03h-.12ZM34.02,21.08c.1,0,.19-.02.27-.07.07-.05.13-.12.16-.22.02-.05.03-.1.03-.16,0-.06.01-.14.01-.23s0-.17-.01-.23-.02-.12-.03-.16c-.03-.1-.08-.17-.16-.22-.07-.05-.16-.07-.27-.07s-.2.02-.27.07c-.07.05-.12.12-.15.22-.02.05-.03.11-.04.18,0,.07,0,.14,0,.21s0,.14,0,.21c0,.07.02.13.04.18.03.09.08.17.15.22.07.05.16.07.27.07Z"/>
      <path class="cls-3" d="M35.86,19.71c-.1,0-.18.01-.25.03-.06.02-.12.05-.17.09-.02.02-.04.02-.05,0l-.06-.09s0-.03.01-.05c.06-.05.13-.09.22-.12.09-.03.19-.04.31-.04.11,0,.2,0,.27.03.08.02.14.05.19.09.05.04.08.1.11.17s.03.15.03.26v1.11s-.01.03-.04.03h-.11s-.04-.01-.04-.03v-.17h0c-.03.07-.09.13-.18.17-.09.05-.2.07-.33.07-.17,0-.3-.04-.4-.12-.1-.08-.15-.2-.15-.37s.05-.29.16-.37.26-.12.47-.12h.42s.02,0,.02-.02v-.17c0-.07,0-.12-.02-.17-.01-.05-.04-.09-.07-.12-.03-.03-.08-.05-.13-.07-.06-.01-.12-.02-.21-.02ZM35.82,21.09c.14,0,.26-.03.34-.1.09-.07.13-.16.13-.27v-.25s0-.02-.02-.02h-.39c-.17,0-.28.03-.36.08-.07.05-.11.14-.11.25,0,.1.04.18.11.24.07.05.17.08.3.08Z"/>
      <path class="cls-3" d="M37.57,21.24c-.16,0-.27-.03-.33-.1-.06-.07-.1-.18-.1-.35v-1.03s0-.02-.02-.02h-.17s-.03-.01-.03-.03v-.1s.01-.03.03-.03h.17s.02,0,.02-.02v-.47s.01-.03.03-.03h.12s.03.01.03.03v.47s0,.02.02.02h.31s.03.01.03.03v.1s-.01.03-.03.03h-.31s-.02,0-.02.02v1.02c0,.11.02.18.06.22.04.04.11.06.21.06h.07s.03.01.03.03v.11s-.01.03-.03.03h-.09Z"/>
      <path class="cls-3" d="M38.19,19.13s-.03-.01-.03-.03v-.19s.01-.03.03-.03h.15s.03.01.03.03v.19s-.01.03-.03.03h-.15ZM38.2,21.23s-.03-.01-.03-.03v-1.58s.01-.03.03-.03h.12s.03.01.03.03v1.58s-.01.03-.03.03h-.12Z"/>
      <path class="cls-3" d="M39.55,21.26c-.15,0-.28-.04-.39-.11-.11-.07-.18-.18-.23-.32-.02-.06-.03-.12-.04-.18s-.01-.15-.01-.25,0-.18.01-.25.02-.13.04-.18c.05-.14.12-.24.23-.32.11-.07.24-.11.39-.11s.28.04.39.11c.11.07.18.18.23.32.02.06.03.12.04.18,0,.07.01.15.01.25s0,.19-.01.25c0,.07-.02.13-.04.18-.05.14-.12.24-.23.32-.11.07-.24.11-.39.11ZM39.55,21.08c.11,0,.2-.03.28-.08s.13-.13.16-.23c.02-.05.03-.1.03-.15,0-.06.01-.13.01-.22s0-.16-.01-.22-.02-.11-.03-.15c-.03-.1-.09-.18-.16-.23-.08-.05-.17-.08-.28-.08s-.2.03-.27.08c-.08.05-.13.13-.16.23-.02.05-.03.1-.03.15s-.01.13-.01.22,0,.16.01.22c0,.06.02.11.03.15.03.1.09.18.16.23s.17.08.27.08Z"/>
      <path class="cls-3" d="M41.86,21.23s-.03-.01-.03-.03v-.98c0-.33-.14-.5-.43-.5-.13,0-.23.04-.32.12-.09.08-.13.19-.13.34v1.01s-.01.03-.03.03h-.12s-.03-.01-.03-.03v-1.58s.01-.03.03-.03h.12s.03.01.03.03v.2h0c.04-.08.1-.15.19-.19.08-.05.18-.07.3-.07.18,0,.33.05.43.16.1.11.15.26.15.47v1.02s-.01.03-.03.03h-.12Z"/>
    </g>
  </g>
</svg>